<?xml version="1.0" encoding="UTF-8"?>
<svg version="1.1" xmlns="http://www.w3.org/2000/svg" width="428" height="400">
<path d="M0 0 C2.63829394 1.30066013 5.10903276 2.65688486 7.5546875 4.29296875 C8.24014648 4.75034424 8.92560547 5.20771973 9.63183594 5.67895508 C10.37208008 6.1767749 11.11232422 6.67459473 11.875 7.1875 C12.66165039 7.71432373 13.44830078 8.24114746 14.25878906 8.78393555 C24.21259204 15.46356359 34.10457613 22.23436267 44 29 C45.92046927 30.31265165 47.84104222 31.62515163 49.76171875 32.9375 C50.70442627 33.58170898 51.64713379 34.22591797 52.6184082 34.88964844 C55.37508498 36.76992784 58.1366312 38.64289162 60.8984375 40.515625 C64.14054397 42.71748989 67.35218675 44.95339165 70.5390625 47.234375 C71.22556885 47.71672607 71.9120752 48.19907715 72.61938477 48.69604492 C73.87255158 49.57730823 75.1161493 50.47241706 76.34741211 51.3840332 C78.15832088 52.70467912 78.15832088 52.70467912 81 54 C85.37689341 53.14798307 88.97577206 50.18052722 92.625 47.6875 C93.2739624 47.24946045 93.9229248 46.8114209 94.59155273 46.36010742 C96.7317072 44.91254159 98.86640063 43.45720802 101 42 C101.72558105 41.50532227 102.45116211 41.01064453 103.19873047 40.50097656 C107.94654797 37.26246089 112.68745552 34.01391939 117.42724609 30.76367188 C129.51857553 22.47483492 141.62918383 14.21572489 153.8125 6.0625 C154.7204834 5.452854 155.6284668 4.84320801 156.56396484 4.21508789 C157.39492676 3.66071045 158.22588867 3.10633301 159.08203125 2.53515625 C159.81655518 2.044104 160.5510791 1.55305176 161.30786133 1.04711914 C163 0 163 0 164 0 C164.35106906 18.32393515 164.61523097 36.64699288 164.77718258 54.97356892 C164.85439441 63.48393256 164.95956389 71.99220192 165.1315918 80.5012207 C165.28153869 87.92161071 165.37797135 95.34048397 165.41132742 102.76234692 C165.43081743 106.68985878 165.47627894 110.61303369 165.58595085 114.53914833 C166.27974386 140.35227385 166.27974386 140.35227385 160.72026062 146.31907654 C157.11072336 149.31894041 153.29429937 151.15110866 149 153 C147.46222791 154.00145347 145.94038831 155.03002991 144.46484375 156.12109375 C143.29154909 156.89700244 142.11593688 157.66942373 140.9375 158.4375 C140.34001953 158.83130859 139.74253906 159.22511719 139.12695312 159.63085938 C137.41943844 160.75613955 135.70977062 161.8781505 134 163 C133.44070801 163.38687988 132.88141602 163.77375977 132.30517578 164.17236328 C128.20454421 167 128.20454421 167 126 167 C125.67 139.61 125.34 112.22 125 84 C114.05159731 91.29893512 103.13156497 98.5874041 92.38085938 106.16601562 C91.48560547 106.78541016 90.59035156 107.40480469 89.66796875 108.04296875 C88.88703857 108.58977295 88.1061084 109.13657715 87.30151367 109.69995117 C84.75245291 111.13983115 82.92439942 111.80949858 80 112 C77.9296875 111.05053711 77.9296875 111.05053711 75.875 109.52734375 C75.08351563 108.95564453 74.29203125 108.38394531 73.4765625 107.79492188 C72.65929687 107.18197266 71.84203125 106.56902344 71 105.9375 C60.5477453 98.25883849 49.82710308 91.21806872 39 84 C38.67 111.39 38.34 138.78 38 167 C33.85362447 165.34144979 30.95067141 163.77694343 27.32421875 161.296875 C26.24849609 160.56339844 25.17277344 159.82992187 24.06445312 159.07421875 C23.50894775 158.69185059 22.95344238 158.30948242 22.38110352 157.91552734 C20.7060766 156.7627843 19.02639735 155.61711607 17.34570312 154.47265625 C14.21720346 152.33220215 11.09456191 150.18929069 8 148 C7.33236791 147.65478617 6.66473581 147.30957233 5.97687244 146.95389748 C3.50678764 145.51208175 1.827057 144.21394469 0 142 C-1.17698544 137.43722856 -1.01144554 132.97243708 -0.90820312 128.28369141 C-0.90594471 126.88381073 -0.90721677 125.48392059 -0.91174316 124.08404541 C-0.91403402 120.29442958 -0.8670818 116.50684893 -0.8111515 112.71770525 C-0.76106119 108.75399697 -0.75643552 104.79023938 -0.74694824 100.82626343 C-0.72210609 93.32491245 -0.65648957 85.82449679 -0.57615232 78.32355726 C-0.48666021 69.78199603 -0.44272913 61.24038958 -0.40258884 52.69847608 C-0.31902022 35.13177681 -0.17835298 17.56598737 0 0 Z " fill="#C72921" transform="translate(134,62)"/>
<path d="M0 0 C0.35106906 18.32393515 0.61523097 36.64699288 0.77718258 54.97356892 C0.85439441 63.48393256 0.95956389 71.99220192 1.1315918 80.5012207 C1.28153869 87.92161071 1.37797135 95.34048397 1.41132742 102.76234692 C1.43081743 106.68985878 1.47627894 110.61303369 1.58595085 114.53914833 C2.27974386 140.35227385 2.27974386 140.35227385 -3.27973938 146.31907654 C-6.88927664 149.31894041 -10.70570063 151.15110866 -15 153 C-16.53777209 154.00145347 -18.05961169 155.03002991 -19.53515625 156.12109375 C-20.70845091 156.89700244 -21.88406312 157.66942373 -23.0625 158.4375 C-23.65998047 158.83130859 -24.25746094 159.22511719 -24.87304688 159.63085938 C-26.58056156 160.75613955 -28.29022938 161.8781505 -30 163 C-30.55929199 163.38687988 -31.11858398 163.77375977 -31.69482422 164.17236328 C-35.79545579 167 -35.79545579 167 -38 167 C-38.33 139.61 -38.66 112.22 -39 84 C-49.98474277 91.32316185 -60.94350307 98.6523538 -71.79492188 106.16601562 C-72.69662109 106.78541016 -73.59832031 107.40480469 -74.52734375 108.04296875 C-75.31874756 108.58977295 -76.11015137 109.13657715 -76.92553711 109.69995117 C-79 111 -79 111 -82 112 C-82.44361317 104.79529646 -82.77937788 97.59359785 -82.98443127 90.37792683 C-83.08302202 87.02306998 -83.22629349 83.68467721 -83.43334961 80.33374023 C-84.73258147 58.75361975 -84.73258147 58.75361975 -80.22384644 52.56018066 C-75.84951521 48.46577136 -70.90608961 45.7851218 -65.51203918 43.2598114 C-61.28606532 41.14044556 -57.52419798 38.37043568 -53.6875 35.625 C-51.2946894 33.98806941 -48.90153402 32.35164462 -46.50830078 30.71533203 C-44.79286904 29.54221315 -43.07771259 28.36869162 -41.36279297 27.19482422 C-31.00219016 20.10422251 -20.62136533 13.04497089 -10.1875 6.0625 C-9.2795166 5.452854 -8.3715332 4.84320801 -7.43603516 4.21508789 C-6.60507324 3.66071045 -5.77411133 3.10633301 -4.91796875 2.53515625 C-4.18344482 2.044104 -3.4489209 1.55305176 -2.69213867 1.04711914 C-1 0 -1 0 0 0 Z " fill="#0566B3" transform="translate(298,62)"/>
<path d="M0 0 C7.26 0 14.52 0 22 0 C28.39705882 22.17647059 28.39705882 22.17647059 30.45703125 31.015625 C30.81974938 32.98488799 30.81974938 32.98488799 32 34 C32.3556604 32.61494263 32.3556604 32.61494263 32.71850586 31.2019043 C33.59893927 27.77438074 34.48077648 24.34721965 35.36303711 20.92016602 C35.74460505 19.4371916 36.1257928 17.95411932 36.5065918 16.47094727 C37.0541743 14.33844539 37.60312544 12.20629984 38.15234375 10.07421875 C38.3221727 9.41161545 38.49200165 8.74901215 38.66697693 8.06632996 C39.36976178 5.34274853 40.11008876 2.66973372 41 0 C48.26 0 55.52 0 63 0 C63 20.13 63 40.26 63 61 C58.38 61 53.76 61 49 61 C48.67 49.12 48.34 37.24 48 25 C45.07933152 36.47254614 45.07933152 36.47254614 42.16625977 47.94702148 C41.79991835 49.38011626 41.43331843 50.813145 41.06640625 52.24609375 C40.78259094 53.37198914 40.78259094 53.37198914 40.49304199 54.52062988 C39.1140718 59.8859282 39.1140718 59.8859282 38 61 C35.81360547 61.07258946 33.62499611 61.08373783 31.4375 61.0625 C29.64119141 61.04896484 29.64119141 61.04896484 27.80859375 61.03515625 C26.88175781 61.02355469 25.95492187 61.01195312 25 61 C22.26316999 53.26108683 20.26516823 45.40589382 18.3125 37.4375 C17.219375 33.003125 16.12625 28.56875 15 24 C14.67 36.21 14.34 48.42 14 61 C9.38 61 4.76 61 0 61 C0 40.87 0 20.74 0 0 Z " fill="#3F3F3F" transform="translate(47,263)"/>
<path d="M0 0 C5.61 0 11.22 0 17 0 C17.01981934 1.25135742 17.03963867 2.50271484 17.06005859 3.79199219 C17.13615293 8.436402 17.22486463 13.08050008 17.31738281 17.72460938 C17.35565669 19.73431238 17.39051236 21.74408351 17.421875 23.75390625 C17.46755991 26.6434768 17.52554887 29.53257896 17.5859375 32.421875 C17.59748871 33.31992859 17.60903992 34.21798218 17.62094116 35.14324951 C17.64081085 35.98381897 17.66068054 36.82438843 17.68115234 37.69042969 C17.69447601 38.42767273 17.70779968 39.16491577 17.7215271 39.92449951 C18.04400631 42.32798566 18.7342106 43.93826312 20 46 C24.4214497 48.7308954 28.11993725 48.02323896 33 47 C35.85876269 45.06341882 36.3185677 43.28546468 37 40 C37.1086193 38.62726322 37.17482598 37.25071309 37.20532227 35.87402344 C37.22526749 35.07349548 37.24521271 34.27296753 37.26576233 33.44818115 C37.28247482 32.59387512 37.29918732 31.73956909 37.31640625 30.859375 C37.33718735 29.97719299 37.35796844 29.09501099 37.37937927 28.18609619 C37.44464867 25.37414169 37.50365447 22.56209555 37.5625 19.75 C37.60570673 17.84113644 37.64932171 15.93228207 37.69335938 14.0234375 C37.80030687 9.34905174 37.90163785 4.67457398 38 0 C43.28 0 48.56 0 54 0 C54.09951 6.08312305 54.17177017 12.16576338 54.21972656 18.24951172 C54.23973625 20.31535098 54.26695283 22.38113437 54.30175781 24.44677734 C54.35074716 27.43080503 54.37307564 30.41407846 54.390625 33.3984375 C54.41127014 34.30927094 54.43191528 35.22010437 54.45318604 36.15853882 C54.45563787 43.30130606 53.25549798 50.62629034 48.11993408 55.94833374 C40.18437551 62.53323884 30.89555551 62.74930288 21 62 C14.07603745 60.85562286 8.5786258 58.43313256 4 53 C-0.19117351 45.45588768 -0.15259771 37.31481293 -0.09765625 28.90625 C-0.0962413 28.07411987 -0.09482635 27.24198975 -0.09336853 26.38464355 C-0.08782167 23.7563907 -0.07527945 21.12822662 -0.0625 18.5 C-0.05747812 16.70573041 -0.05291642 14.91145946 -0.04882812 13.1171875 C-0.03872541 8.74473089 -0.01914016 4.37246349 0 0 Z " fill="#3F3F3F" transform="translate(127,263)"/>
<path d="M0 0 C5.94 0 11.88 0 18 0 C23.10350101 12.60252291 28.06639279 25.25549712 32.96286011 37.93966675 C33.65549578 39.73301941 34.34928669 41.52592631 35.04421997 43.31838989 C36.03288255 45.86981608 37.01705422 48.42292935 38 50.9765625 C38.30276352 51.75596695 38.60552704 52.5353714 38.91746521 53.33839417 C41 58.7711683 41 58.7711683 41 61 C35.39 61 29.78 61 24 61 C20 52.375 20 52.375 20 49 C12.74 49 5.48 49 -2 49 C-2.99 52.3 -3.98 55.6 -5 59 C-5.33 59.66 -5.66 60.32 -6 61 C-11.61 61 -17.22 61 -23 61 C-20.48987231 51.84652683 -17.06719783 43.08148235 -13.63964844 34.2421875 C-12.63065541 31.63958758 -11.62736251 29.03484731 -10.625 26.4296875 C-7.20612646 17.56446152 -3.70854265 8.74872417 0 0 Z M8 17 C6.99513105 19.95670218 5.99693976 22.91561577 5 25.875 C4.71382813 26.71675781 4.42765625 27.55851562 4.1328125 28.42578125 C3.86210937 29.23144531 3.59140625 30.03710938 3.3125 30.8671875 C2.93544922 31.98262939 2.93544922 31.98262939 2.55078125 33.12060547 C1.90625506 34.99347314 1.90625506 34.99347314 2 37 C6.29 37 10.58 37 15 37 C13.63125844 30.04223041 11.5466871 23.61396893 9 17 C8.67 17 8.34 17 8 17 Z " fill="#3E3E3E" transform="translate(342,263)"/>
<path d="M0 0 C5.94 0 11.88 0 18 0 C22.29 12.87 26.58 25.74 31 39 C33.31342576 35.52986135 34.36651017 32.03164884 35.56640625 28.0859375 C35.80536118 27.31569244 36.0443161 26.54544739 36.29051208 25.75186157 C37.05244015 23.29430136 37.80797243 20.83484154 38.5625 18.375 C39.32119741 15.90821399 40.08130098 13.44189561 40.84519958 10.97671509 C41.3202796 9.44301026 41.79225274 7.90833907 42.26087952 6.37265015 C43.88778904 1.11221096 43.88778904 1.11221096 45 0 C47.86267567 -0.07325168 50.700719 -0.09238205 53.5625 -0.0625 C54.36880859 -0.05798828 55.17511719 -0.05347656 56.00585938 -0.04882812 C58.00393756 -0.03700518 60.00197783 -0.01906914 62 0 C59.90383884 7.32895696 57.44899912 14.47732922 54.8046875 21.625 C54.41177521 22.69371338 54.01886292 23.76242676 53.61404419 24.86352539 C52.79015791 27.10272937 51.96485158 29.34141132 51.13818359 31.57958984 C49.86882605 35.01671763 48.60397795 38.45547937 47.33984375 41.89453125 C46.53671864 44.0756167 45.73334228 46.25660966 44.9296875 48.4375 C44.55053192 49.46762207 44.17137634 50.49774414 43.7807312 51.55908203 C43.43011627 52.5076709 43.07950134 53.45625977 42.71826172 54.43359375 C42.40976288 55.26947021 42.10126404 56.10534668 41.78341675 56.96655273 C41 59 41 59 40 61 C34.06 61 28.12 61 22 61 C19.12984882 53.19486814 16.26105287 45.38924235 13.39466858 37.58272648 C12.0637723 33.95823764 10.73227303 30.33397267 9.39941406 26.71020508 C8.1142042 23.21591806 6.83055431 19.72106173 5.54800415 16.22579765 C5.05734278 14.88948418 4.56611065 13.55338014 4.0743103 12.21748543 C3.38789296 10.35265105 2.70365574 8.48701463 2.01953125 6.62133789 C1.62870361 5.55766495 1.23787598 4.493992 0.83520508 3.39808655 C0 1 0 1 0 0 Z " fill="#3E3E3E" transform="translate(258,263)"/>
<path d="M0 0 C5.94 0 11.88 0 18 0 C22.29 13.2 26.58 26.4 31 40 C33.0975047 35.10582237 34.91234721 30.41271634 36.4453125 25.3515625 C36.66065643 24.65356537 36.87600037 23.95556824 37.09786987 23.23641968 C37.77720616 21.03370825 38.45161892 18.82953864 39.125 16.625 C39.80578294 14.39912324 40.48770654 12.17363226 41.17355347 9.9493103 C41.5983929 8.57135355 42.02030054 7.19248881 42.43899536 5.81265259 C43.88743165 1.11256835 43.88743165 1.11256835 45 0 C47.86267567 -0.07325168 50.700719 -0.09238205 53.5625 -0.0625 C54.36880859 -0.05798828 55.17511719 -0.05347656 56.00585938 -0.04882812 C58.00393756 -0.03700518 60.00197783 -0.01906914 62 0 C55.50223268 20.63104333 47.65994114 40.78051573 40 61 C34.06 61 28.12 61 22 61 C19.27698735 53.6380253 16.55575233 46.27539944 13.83763218 38.91161728 C12.57539901 35.49226228 11.31239231 32.07319721 10.04760742 28.65478516 C8.82680503 25.3551594 7.60804819 22.05478476 6.39069939 18.75388336 C5.70024164 16.88331163 5.00767371 15.01351925 4.31507874 13.14373779 C3.89471848 12.00285706 3.47435822 10.86197632 3.04125977 9.68652344 C2.67041763 8.68280701 2.2995755 7.67909058 1.91749573 6.6449585 C1 4 1 4 0 0 Z " fill="#3E3E3E" transform="translate(192,263)"/>
<path d="M0 0 C0.33 0 0.66 0 1 0 C2.39430529 27.15486294 2.11761487 54.3384333 2.06866455 81.51953125 C2.05828978 87.90299139 2.05383712 94.28645567 2.04882812 100.66992188 C2.03822037 113.11329191 2.02123629 125.55664387 2 138 C4.64 138.33 7.28 138.66 10 139 C10 141.31 10 143.62 10 146 C10.99 146 11.98 146 13 146 C13 146.66 13 147.32 13 148 C13.639375 148.103125 14.27875 148.20625 14.9375 148.3125 C15.9584375 148.6528125 15.9584375 148.6528125 17 149 C17.33 149.99 17.66 150.98 18 152 C20.43276386 153.18519265 22.28017286 154 25 154 C25 154.66 25 155.32 25 156 C25.66 156 26.32 156 27 156 C27.33 155.34 27.66 154.68 28 154 C28 154.66 28 155.32 28 156 C28.66 156 29.32 156 30 156 C30.33 155.34 30.66 154.68 31 154 C31.99 154.66 32.98 155.32 34 156 C34 156.99 34 157.98 34 159 C33.01 159 32.02 159 31 159 C31.495 159.45375 31.99 159.9075 32.5 160.375 C34 162 34 162 34 164 C34.99 163.67 35.98 163.34 37 163 C37 163.99 37 164.98 37 166 C33.16956972 165.36291631 30.59726112 163.57151177 27.421875 161.39453125 C25.80345703 160.28948242 25.80345703 160.28948242 24.15234375 159.16210938 C23.59272949 158.77563232 23.03311523 158.38915527 22.45654297 157.9909668 C20.77320169 156.82852211 19.08451718 155.67424151 17.39453125 154.52148438 C14.24926265 152.36542332 11.11088397 150.20543772 8 148 C7.3318565 147.65427476 6.663713 147.30854952 5.97532272 146.95234776 C3.50572057 145.51108497 1.82655309 144.21345869 0 142 C-1.1769165 137.4372066 -1.01144566 132.97244237 -0.90820312 128.28369141 C-0.90594471 126.88381073 -0.90721677 125.48392059 -0.91174316 124.08404541 C-0.91403402 120.29442958 -0.8670818 116.50684893 -0.8111515 112.71770525 C-0.76106119 108.75399697 -0.75643552 104.79023938 -0.74694824 100.82626343 C-0.72210609 93.32491245 -0.65648957 85.82449679 -0.57615232 78.32355726 C-0.48666021 69.78199603 -0.44272913 61.24038958 -0.40258884 52.69847608 C-0.31902022 35.13177681 -0.17835298 17.56598737 0 0 Z " fill="#8A1E22" transform="translate(134,62)"/>
<path d="M0 0 C7.9519944 5.01179443 15.80867826 10.15450467 23.625 15.375 C24.71167969 16.09816406 25.79835937 16.82132813 26.91796875 17.56640625 C27.94792969 18.25347656 28.97789062 18.94054687 30.0390625 19.6484375 C30.96928223 20.26895996 31.89950195 20.88948242 32.85791016 21.52880859 C35 23 35 23 36 24 C36.09370624 25.77991924 36.11744271 27.56356739 36.11352539 29.34594727 C36.11344986 30.4870546 36.11337433 31.62816193 36.11329651 32.80384827 C36.10813522 34.0454924 36.10297394 35.28713654 36.09765625 36.56640625 C36.0962413 37.83016586 36.09482635 39.09392548 36.09336853 40.39598083 C36.08870582 43.76124889 36.0797148 47.1264499 36.06866455 50.49169922 C36.05844846 53.9234967 36.05387049 57.35530109 36.04882812 60.78710938 C36.0377738 67.52475824 36.0210171 74.26237525 36 81 C32.68296324 79.71267073 29.89396999 78.40276858 27.00390625 76.3203125 C26.28009766 75.80339844 25.55628906 75.28648437 24.81054688 74.75390625 C23.69776367 73.94759766 23.69776367 73.94759766 22.5625 73.125 C21.08514166 72.06439864 19.60728609 71.00448952 18.12890625 69.9453125 C17.42910645 69.4390332 16.72930664 68.93275391 16.00830078 68.41113281 C14.19545467 67.13733625 12.34961218 65.96752379 10.46484375 64.8046875 C9.65144531 64.20914063 8.83804688 63.61359375 8 63 C8 62.01 8 61.02 8 60 C10.3125 59.375 10.3125 59.375 13 59 C13.99 59.66 14.98 60.32 16 61 C15.67 61.66 15.34 62.32 15 63 C15.66 63 16.32 63 17 63 C17 61.68 17 60.36 17 59 C17.66 59 18.32 59 19 59 C19.33 61.31 19.66 63.62 20 66 C22.31 66.66 24.62 67.32 27 68 C27.33 70.31 27.66 72.62 28 75 C29.32 75 30.64 75 32 75 C32 74.34 32 73.68 32 73 C32.99 73 33.98 73 35 73 C34.67 57.82 34.34 42.64 34 27 C33.01 27 32.02 27 31 27 C30 24 30 24 30 22 C29.34 22 28.68 22 28 22 C28 21.34 28 20.68 28 20 C27.443125 19.87625 26.88625 19.7525 26.3125 19.625 C24 19 24 19 21.375 17.9375 C19.11550447 16.87761116 19.11550447 16.87761116 17 17 C16.67 17.66 16.34 18.32 16 19 C14.68 19 13.36 19 12 19 C12.33 16.36 12.66 13.72 13 11 C8.545 10.01 8.545 10.01 4 9 C4 7.35 4 5.7 4 4 C2.68 3.34 1.36 2.68 0 2 C0 1.34 0 0.68 0 0 Z " fill="#D57040" transform="translate(180,93)"/>
<path d="M0 0 C0.33 0 0.66 0 1 0 C1.34906114 9.19669238 1.61478909 18.3910758 1.77718258 27.59296894 C1.85517023 31.86718992 1.96070334 36.13685165 2.1315918 40.40844727 C3.298457 70.35163429 3.298457 70.35163429 -2.12231445 76.55639648 C-5.18750534 79.14193248 -8.46497988 80.83160663 -12.19155884 82.27407837 C-14.56715935 83.22766195 -16.48928797 84.5969131 -18.53515625 86.12109375 C-19.70845091 86.89700244 -20.88406312 87.66942373 -22.0625 88.4375 C-22.65998047 88.83130859 -23.25746094 89.22511719 -23.87304688 89.63085938 C-25.58056156 90.75613955 -27.29022938 91.8781505 -29 93 C-29.55929199 93.38687988 -30.11858398 93.77375977 -30.69482422 94.17236328 C-34.79545579 97 -34.79545579 97 -37 97 C-37 69.61 -37 42.22 -37 14 C-36.67 14 -36.34 14 -36 14 C-35.67 39.74 -35.34 65.48 -35 92 C-34.01 92 -33.02 92 -32 92 C-31.855625 91.05125 -31.71125 90.1025 -31.5625 89.125 C-31 86 -31 86 -30 84 C-28.68 84.33 -27.36 84.66 -26 85 C-26 85.66 -26 86.32 -26 87 C-23.83333333 86.16666667 -23.83333333 86.16666667 -23 84 C-21.02111039 83.27306096 -19.02045442 82.60183749 -17 82 C-16.67 80.35 -16.34 78.7 -16 77 C-15.34 77.33 -14.68 77.66 -14 78 C-13.01 78 -12.02 78 -11 78 C-10.5359375 76.329375 -10.5359375 76.329375 -10.0625 74.625 C-9 71 -9 71 -8 69 C-7.34 69.99 -6.68 70.98 -6 72 C-5.34 70.68 -4.68 69.36 -4 68 C-3.01 68 -2.02 68 -1 68 C-0.67 45.56 -0.34 23.12 0 0 Z " fill="#214685" transform="translate(297,132)"/>
<path d="M0 0 C1.98 0 3.96 0 6 0 C8.3359375 2.625 8.3359375 2.625 10.375 6 C11.06335938 7.11375 11.75171875 8.2275 12.4609375 9.375 C12.96882813 10.24125 13.47671875 11.1075 14 12 C14.33 8.04 14.66 4.08 15 0 C16.65 0 18.3 0 20 0 C20 7.59 20 15.18 20 23 C18.02 23 16.04 23 14 23 C11.6640625 20.375 11.6640625 20.375 9.625 17 C8.59246094 15.329375 8.59246094 15.329375 7.5390625 13.625 C7.03117187 12.75875 6.52328125 11.8925 6 11 C5.67 14.96 5.34 18.92 5 23 C3.35 23 1.7 23 0 23 C0 15.41 0 7.82 0 0 Z " fill="#484642" transform="translate(338,343)"/>
<path d="M0 0 C1.98 0 3.96 0 6 0 C8.3359375 2.625 8.3359375 2.625 10.375 6 C11.06335938 7.11375 11.75171875 8.2275 12.4609375 9.375 C12.96882813 10.24125 13.47671875 11.1075 14 12 C14.33 8.04 14.66 4.08 15 0 C16.65 0 18.3 0 20 0 C20 7.59 20 15.18 20 23 C18.02 23 16.04 23 14 23 C11.6640625 20.375 11.6640625 20.375 9.625 17 C8.59246094 15.329375 8.59246094 15.329375 7.5390625 13.625 C7.03117187 12.75875 6.52328125 11.8925 6 11 C5.67 14.96 5.34 18.92 5 23 C3.35 23 1.7 23 0 23 C0 15.41 0 7.82 0 0 Z " fill="#3D434B" transform="translate(105,343)"/>
<path d="M0 0 C2.908125 -0.0825 5.81625 -0.165 8.8125 -0.25 C10.18112183 -0.30462402 10.18112183 -0.30462402 11.57739258 -0.36035156 C17.51114575 -0.4422967 17.51114575 -0.4422967 20.05078125 1.85546875 C21.21912889 4.49506897 21.43941273 6.14381725 21 9 C19.625 10.8125 19.625 10.8125 18 12 C17.34 12 16.68 12 16 12 C16.433125 12.62648438 16.86625 13.25296875 17.3125 13.8984375 C17.869375 14.71570313 18.42625 15.53296875 19 16.375 C19.556875 17.18710937 20.11375 17.99921875 20.6875 18.8359375 C22 21 22 21 22 23 C19.3125 23.5 19.3125 23.5 16 23 C14.5061206 21.04747342 13.40693669 19.00623573 12.234375 16.84765625 C11.07257588 14.71039402 11.07257588 14.71039402 8.1875 14 C7.465625 14 6.74375 14 6 14 C6 16.97 6 19.94 6 23 C4.02 23 2.04 23 0 23 C0 15.41 0 7.82 0 0 Z M6 3 C4.99782936 6.58327753 4.99782936 6.58327753 6 10 C10.79308342 10.46522293 10.79308342 10.46522293 14.9375 8.5 C15.288125 8.005 15.63875 7.51 16 7 C15.34 5.68 14.68 4.36 14 3 C11.36 3 8.72 3 6 3 Z " fill="#4C4639" transform="translate(184,343)"/>
<path d="M0 0 C3.16451887 2.57117158 5.72895651 4.77833205 6.23828125 8.953125 C6.41671787 14.47526891 5.857487 17.72548737 2 22 C-1.79118257 24.49134854 -5.4928494 24.21515583 -9.84375 23.61328125 C-13.23414149 22.64898512 -14.90683888 20.74727397 -17 18 C-18.57190666 13.28428001 -18.50255135 9.45181501 -16.875 4.75 C-12.68141058 -1.40059782 -6.75992025 -2.07901783 0 0 Z M-10.3125 4.5625 C-12.38384405 7.55444141 -12.92716375 9.35818725 -13 13 C-11.46916633 16.79440348 -11.46916633 16.79440348 -9 20 C-4.93552787 20.3617845 -4.93552787 20.3617845 -1.1875 19 C0.68734786 15.8423615 1.10548718 12.6076617 1 9 C0.13353917 5.99844249 0.13353917 5.99844249 -2 4 C-5.59962271 2.69800881 -7.09505381 2.38854987 -10.3125 4.5625 Z " fill="#43474E" transform="translate(92,343)"/>
<path d="M0 0 C3.16451887 2.57117158 5.72895651 4.77833205 6.23828125 8.953125 C6.41671787 14.47526891 5.857487 17.72548737 2 22 C-1.79118257 24.49134854 -5.4928494 24.21515583 -9.84375 23.61328125 C-13.23414149 22.64898512 -14.90683888 20.74727397 -17 18 C-18.57190666 13.28428001 -18.50255135 9.45181501 -16.875 4.75 C-12.68141058 -1.40059782 -6.75992025 -2.07901783 0 0 Z M-12 6 C-13.35643895 10.51276805 -13.59954003 13.82490155 -11.4375 18.0625 C-9.10731736 20.23818869 -9.10731736 20.23818869 -5.9375 20.5 C-3.0947152 20.18201573 -3.0947152 20.18201573 -1.1875 19 C0.68027585 15.85427225 1.1403443 12.59983123 1 9 C-0.13774328 6.56936663 -1.11813896 4.88186104 -3 3 C-7.01186755 2.56628459 -9.33707542 2.86155318 -12 6 Z " fill="#3F4148" transform="translate(325,343)"/>
<path d="M0 0 C2.5646165 2.18746702 2.8573244 3.51116765 3.125 6.8125 C0.75 7 0.75 7 -1.875 6.8125 C-2.535 5.8225 -3.195 4.8325 -3.875 3.8125 C-6.45880177 3.56219023 -6.45880177 3.56219023 -8.875 3.8125 C-9.205 4.8025 -9.535 5.7925 -9.875 6.8125 C-9.19953125 6.97105469 -8.5240625 7.12960937 -7.828125 7.29296875 C-3.56666165 8.40760006 -0.52992726 9.23372708 2.8125 12.1875 C4.125 14.8125 4.125 14.8125 4.0625 17.4375 C2.76546113 20.7233318 1.25937309 22.24531345 -1.875 23.8125 C-7.12268331 24.15661038 -10.69189172 24.3804453 -14.875 20.8125 C-16.1875 18.125 -16.1875 18.125 -16.875 15.8125 C-15.225 15.4825 -13.575 15.1525 -11.875 14.8125 C-11.318125 15.8025 -11.318125 15.8025 -10.75 16.8125 C-8.96605222 19.16553045 -8.96605222 19.16553045 -5.6875 19.0625 C-4.2953125 18.93875 -4.2953125 18.93875 -2.875 18.8125 C-2.545 17.8225 -2.215 16.8325 -1.875 15.8125 C-3.421875 15.1628125 -3.421875 15.1628125 -5 14.5 C-5.95132813 14.08234375 -5.95132813 14.08234375 -6.921875 13.65625 C-8.68073481 12.89642256 -10.46431077 12.1944347 -12.25 11.5 C-14.875 9.8125 -14.875 9.8125 -15.9375 6.875 C-15.86574754 3.35912943 -15.37892214 2.22699635 -12.875 -0.1875 C-8.30873244 -1.70958919 -4.48387271 -1.85203438 0 0 Z " fill="#3D3C42" transform="translate(148.875,343.1875)"/>
<path d="M0 0 C2.5646165 2.18746702 2.8573244 3.51116765 3.125 6.8125 C0.75 7 0.75 7 -1.875 6.8125 C-2.535 5.8225 -3.195 4.8325 -3.875 3.8125 C-6.45880177 3.56219023 -6.45880177 3.56219023 -8.875 3.8125 C-9.205 4.8025 -9.535 5.7925 -9.875 6.8125 C-9.19953125 6.97105469 -8.5240625 7.12960937 -7.828125 7.29296875 C-3.56666165 8.40760006 -0.52992726 9.23372708 2.8125 12.1875 C4.125 14.8125 4.125 14.8125 4.0625 17.4375 C3.06635968 19.96105548 2.26290618 21.16795679 0.125 22.8125 C-4.41125191 24.32458397 -8.24115162 24.50234709 -12.6875 22.625 C-15.20341931 20.54038114 -15.95370137 18.91141358 -16.875 15.8125 C-15.225 15.4825 -13.575 15.1525 -11.875 14.8125 C-11.318125 15.8025 -11.318125 15.8025 -10.75 16.8125 C-8.96605222 19.16553045 -8.96605222 19.16553045 -5.6875 19.0625 C-4.2953125 18.93875 -4.2953125 18.93875 -2.875 18.8125 C-2.545 17.8225 -2.215 16.8325 -1.875 15.8125 C-3.421875 15.1628125 -3.421875 15.1628125 -5 14.5 C-5.63421875 14.22285156 -6.2684375 13.94570313 -6.921875 13.66015625 C-8.68717031 12.89401809 -10.46784715 12.16356227 -12.25 11.4375 C-14.875 9.8125 -14.875 9.8125 -15.9375 7.4375 C-15.85730833 4.06944973 -14.92879113 2.45308859 -12.875 -0.1875 C-8.30873244 -1.70958919 -4.48387271 -1.85203438 0 0 Z " fill="#3E3F44" transform="translate(381.875,343.1875)"/>
<path d="M0 0 C1.65 0 3.3 0 5 0 C5.06058594 1.20398438 5.12117187 2.40796875 5.18359375 3.6484375 C5.26799732 5.22397077 5.35264541 6.79949096 5.4375 8.375 C5.47681641 9.1690625 5.51613281 9.963125 5.55664062 10.78125 C5.68893404 15.02601221 5.68893404 15.02601221 7 19 C9.31 19 11.62 19 14 19 C14.33 12.73 14.66 6.46 15 0 C16.65 0 18.3 0 20 0 C20.10829314 2.89684158 20.18743954 5.78961019 20.25 8.6875 C20.30027344 9.91243164 20.30027344 9.91243164 20.3515625 11.16210938 C20.41793722 15.26074824 20.34080776 17.43708461 18.171875 21.01953125 C15.31723492 23.62259334 13.45916431 23.96598783 9.625 24.25 C5.78095442 23.98489341 4.02612916 23.31409877 1 21 C-0.17426264 18.65147472 -0.11508173 17.26225935 -0.09765625 14.6484375 C-0.09443359 13.79765625 -0.09121094 12.946875 -0.08789062 12.0703125 C-0.07951172 11.18085938 -0.07113281 10.29140625 -0.0625 9.375 C-0.05798828 8.4778125 -0.05347656 7.580625 -0.04882812 6.65625 C-0.03702591 4.43743352 -0.02056155 2.21874982 0 0 Z " fill="#4A4348" transform="translate(213,343)"/>
<path d="M0 0 C2.5625 2.5625 2.5625 2.5625 4 5 C3.67 5.66 3.34 6.32 3 7 C0.9375 7.625 0.9375 7.625 -1 8 C-1.391875 7.34 -1.78375 6.68 -2.1875 6 C-3.8442262 3.77336403 -3.8442262 3.77336403 -6.5 3.5 C-9.08605093 3.77726098 -9.08605093 3.77726098 -10.67578125 5.671875 C-12.38161904 8.67092906 -12.13115237 10.36210917 -11.6875 13.75 C-11.56761719 14.73484375 -11.44773437 15.7196875 -11.32421875 16.734375 C-11.21722656 17.48203125 -11.11023437 18.2296875 -11 19 C-7.62563814 19.33380814 -7.62563814 19.33380814 -4 19 C-2.36323743 17.0399719 -2.36323743 17.0399719 -1 15 C1.6875 14.75 1.6875 14.75 4 15 C3.5047783 18.66464055 2.9791794 20.70832354 0 23 C-4.50559641 24.50186547 -8.34213337 24.71589695 -12.75 22.8125 C-15.98223786 20.20875284 -17.72656549 18.06012304 -18.28515625 13.8515625 C-18.46527873 9.13705243 -18.23949816 5.67143125 -15 2 C-10.18085866 -1.44224381 -5.55550889 -1.78155788 0 0 Z " fill="#424E57" transform="translate(64,343)"/>
<path d="M0 0 C2.5625 2.4375 2.5625 2.4375 4 5 C4 5.66 4 6.32 4 7 C1.6875 7.1875 1.6875 7.1875 -1 7 C-2 6 -3 5 -4 4 C-6.5 3.33333333 -6.5 3.33333333 -9 4 C-11.12286005 6.26438405 -11.98539773 7.90900201 -12.02734375 11.04296875 C-11.58251029 15.49286648 -11.58251029 15.49286648 -9 19 C-6.54258463 19.50014953 -6.54258463 19.50014953 -4 19 C-3.505 18.34 -3.01 17.68 -2.5 17 C-2.005 16.34 -1.51 15.68 -1 15 C1.6875 14.75 1.6875 14.75 4 15 C3.5047783 18.66464055 2.9791794 20.70832354 0 23 C-4.49269144 24.49756381 -8.32510608 24.68518388 -12.75 22.875 C-16.61763989 19.65196676 -17.84444911 16.4518083 -18.375 11.5 C-17.95273992 7.55890595 -17.23350591 5.27580867 -15 2 C-10.24242617 -1.51154259 -5.53062427 -1.75258872 0 0 Z " fill="#3D4149" transform="translate(258,343)"/>
<path d="M0 0 C6.6 0 13.2 0 20 0 C20 0.99 20 1.98 20 3 C17.69 3.33 15.38 3.66 13 4 C13 10.27 13 16.54 13 23 C11.02 23 9.04 23 7 23 C7 16.4 7 9.8 7 3 C4.69 3 2.38 3 0 3 C0 2.01 0 1.02 0 0 Z " fill="#544D48" transform="translate(158,343)"/>
<path d="M0 0 C0.66 0.99 1.32 1.98 2 3 C1.05125 3.598125 0.1025 4.19625 -0.875 4.8125 C-4.13964197 6.81562526 -4.13964197 6.81562526 -6 10 C-7.9453125 10.94921875 -7.9453125 10.94921875 -10.125 11.6875 C-10.84945312 11.93886719 -11.57390625 12.19023438 -12.3203125 12.44921875 C-12.87460937 12.63097656 -13.42890625 12.81273438 -14 13 C-14 14.65 -14 16.3 -14 18 C-14.99 17.67 -15.98 17.34 -17 17 C-17.33 17.66 -17.66 18.32 -18 19 C-19.32 19 -20.64 19 -22 19 C-23.36161311 19.96113866 -24.69855198 20.95884159 -26 22 C-26.66 22 -27.32 22 -28 22 C-28.09087891 22.93585938 -28.09087891 22.93585938 -28.18359375 23.890625 C-29 26 -29 26 -31.28515625 27.046875 C-32.20167969 27.27890625 -33.11820313 27.5109375 -34.0625 27.75 C-35.44115234 28.11351562 -35.44115234 28.11351562 -36.84765625 28.484375 C-37.55792969 28.65453125 -38.26820313 28.8246875 -39 29 C-39 30.65 -39 32.3 -39 34 C-39.99 34.495 -39.99 34.495 -41 35 C-41.99 34.67 -42.98 34.34 -44 34 C-44.99 34.66 -45.98 35.32 -47 36 C-47 34.68 -47 33.36 -47 32 C-45.05419922 30.22338867 -45.05419922 30.22338867 -42.3046875 28.41796875 C-41.28818115 27.73984131 -40.2716748 27.06171387 -39.22436523 26.36303711 C-38.11907471 25.64510986 -37.01378418 24.92718262 -35.875 24.1875 C-34.74522453 23.43966654 -33.61640726 22.6903836 -32.48852539 21.93969727 C-30.16124133 20.39227955 -27.82987385 18.85131227 -25.49560547 17.31445312 C-20.09941216 13.75280457 -14.7717245 10.0910845 -9.4375 6.4375 C-7.60311906 5.18582489 -5.76850875 3.93448581 -3.93359375 2.68359375 C-2.62237944 1.78908653 -1.31117457 0.89456547 0 0 Z " fill="#0E7EB9" transform="translate(276,76)"/>
<path d="M0 0 C6.6 0 13.2 0 20 0 C20 0.99 20 1.98 20 3 C17.36 3 14.72 3 12 3 C12 9.6 12 16.2 12 23 C10.35 23 8.7 23 7 23 C7 16.4 7 9.8 7 3 C4.69 3 2.38 3 0 3 C0 2.01 0 1.02 0 0 Z " fill="#4D4641" transform="translate(268,343)"/>
<path d="M0 0 C-0.33 0.66 -0.66 1.32 -1 2 C-0.34 2 0.32 2 1 2 C1 0.68 1 -0.64 1 -2 C1.66 -2 2.32 -2 3 -2 C3.33 0.31 3.66 2.62 4 5 C6.31 5.66 8.62 6.32 11 7 C11.33 9.31 11.66 11.62 12 14 C13.32 14 14.64 14 16 14 C16 13.34 16 12.68 16 12 C16.99 12 17.98 12 19 12 C19 13.98 19 15.96 19 18 C12.52875892 17.11851833 7.95497415 13.25123301 2.6875 9.625 C1.66076172 8.93921875 0.63402344 8.2534375 -0.42382812 7.546875 C-1.39384766 6.88429687 -2.36386719 6.22171875 -3.36328125 5.5390625 C-4.25313721 4.93271973 -5.14299316 4.32637695 -6.05981445 3.70166016 C-6.70007568 3.1401123 -7.34033691 2.57856445 -8 2 C-8 1.01 -8 0.02 -8 -1 C-4.59745511 -2.2151946 -3.06748874 -1.86240388 0 0 Z " fill="#EB4C22" transform="translate(196,154)"/>
<path d="M0 0 C6.60189865 1.29167582 12.00449588 4.48695905 17 9 C17 9.99 17 10.98 17 12 C13.7 12.33 10.4 12.66 7 13 C6.67 11.68 6.34 10.36 6 9 C3.36 9.99 0.72 10.98 -2 12 C-2.125 9.625 -2.125 9.625 -2 7 C-1.34 6.34 -0.68 5.68 0 5 C-0.66 4.01 -1.32 3.02 -2 2 C-1.34 2 -0.68 2 0 2 C0 1.34 0 0.68 0 0 Z " fill="#EA1E23" transform="translate(162,83)"/>
<path d="M0 0 C0.33 0 0.66 0 1 0 C1.11584226 9.31844634 1.20468854 18.63664491 1.25906086 27.95565414 C1.28515685 32.28286925 1.32055402 36.60959182 1.37719727 40.93652344 C1.43151838 45.11219371 1.46142052 49.28739021 1.47438622 53.46338654 C1.48362606 55.05665802 1.50166978 56.64990351 1.52865028 58.24297333 C1.56494492 60.47472684 1.56994562 62.70452236 1.56762695 64.93652344 C1.57873001 66.20671326 1.58983307 67.47690308 1.60127258 68.7855835 C1 72 1 72 -1.35969543 74.42584229 C-4.23320145 76.13903542 -5.71949452 76.37491491 -9 76 C-9 73.69 -9 71.38 -9 69 C-8.01 69.99 -7.02 70.98 -6 72 C-5.34 70.68 -4.68 69.36 -4 68 C-3.01 68 -2.02 68 -1 68 C-0.67 45.56 -0.34 23.12 0 0 Z " fill="#1D4589" transform="translate(297,132)"/>
<path d="M0 0 C1.98 0 3.96 0 6 0 C6.66 2.31 7.32 4.62 8 7 C7.01 6.67 6.02 6.34 5 6 C4.67 6.66 4.34 7.32 4 8 C4.66 8.33 5.32 8.66 6 9 C5.67 13.62 5.34 18.24 5 23 C3.35 23 1.7 23 0 23 C0 15.41 0 7.82 0 0 Z " fill="#584D4F" transform="translate(338,343)"/>
<path d="M0 0 C7.23842593 0.36805556 7.23842593 0.36805556 10.9375 3.4375 C14.49742075 7.86043184 14.56406006 11.45500281 14 17 C12.5625 20.0625 12.5625 20.0625 11 22 C10.67 22 10.34 22 10 22 C10 18.37 10 14.74 10 11 C9.34 10.67 8.68 10.34 8 10 C7.6596875 9.01 7.6596875 9.01 7.3125 8 C6.879375 7.34 6.44625 6.68 6 6 C2.43793339 5.18129815 2.43793339 5.18129815 -1 5 C-1 2 -1 2 0 0 Z " fill="#3D404D" transform="translate(84,342)"/>
<path d="M0 0 C1.65 0 3.3 0 5 0 C0.93600861 4.41141014 -3.54251848 7.61739826 -8.5625 10.875 C-9.31724609 11.38546875 -10.07199219 11.8959375 -10.84960938 12.421875 C-11.94692383 13.13730469 -11.94692383 13.13730469 -13.06640625 13.8671875 C-13.72584229 14.30144043 -14.38527832 14.73569336 -15.06469727 15.18310547 C-17.45527375 16.19217181 -18.6028253 15.8654518 -21 15 C-20.125 10.25 -20.125 10.25 -19 8 C-17.68 8.33 -16.36 8.66 -15 9 C-15 9.66 -15 10.32 -15 11 C-12.83333333 10.16666667 -12.83333333 10.16666667 -12 8 C-10.02111039 7.27306096 -8.02045442 6.60183749 -6 6 C-5.67 4.35 -5.34 2.7 -5 1 C-4.34 1.33 -3.68 1.66 -3 2 C-2.01 2 -1.02 2 0 2 C0 1.34 0 0.68 0 0 Z " fill="#2C3584" transform="translate(286,208)"/>
<path d="M0 0 C1.32 0.33 2.64 0.66 4 1 C4 2.65 4 4.3 4 6 C2.02 6.99 2.02 6.99 0 8 C0.433125 8.62648438 0.86625 9.25296875 1.3125 9.8984375 C1.869375 10.71570313 2.42625 11.53296875 3 12.375 C3.8353125 13.59316406 3.8353125 13.59316406 4.6875 14.8359375 C6 17 6 17 6 19 C3.1875 19.3125 3.1875 19.3125 0 19 C-2.84576825 15.66358205 -3.62467763 12.31620729 -4 8 C-3.67 7.01 -3.34 6.02 -3 5 C-2.34 5 -1.68 5 -1 5 C-0.67 3.35 -0.34 1.7 0 0 Z " fill="#404249" transform="translate(200,347)"/>
<path d="M0 0 C2.5625 2.4375 2.5625 2.4375 4 5 C4 5.66 4 6.32 4 7 C1.6875 7.1875 1.6875 7.1875 -1 7 C-2 6 -3 5 -4 4 C-7.18222067 3.51042759 -8.51271012 3.66585837 -11.1875 5.5 C-11.785625 5.995 -12.38375 6.49 -13 7 C-13.66 7 -14.32 7 -15 7 C-15.33 5.68 -15.66 4.36 -16 3 C-10.75884765 -1.156776 -6.41411209 -1.72509513 0 0 Z " fill="#3F3F43" transform="translate(258,343)"/>
<path d="M0 0 C1.32 0.33 2.64 0.66 4 1 C4.33 8.26 4.66 15.52 5 23 C3.35 23 1.7 23 0 23 C0 15.41 0 7.82 0 0 Z " fill="#4A4041" transform="translate(105,343)"/>
<path d="M0 0 C1.32 0 2.64 0 4 0 C4 7.59 4 15.18 4 23 C2.68 23 1.36 23 0 23 C0 15.41 0 7.82 0 0 Z " fill="#555758" transform="translate(295,343)"/>
<path d="M0 0 C2.5646165 2.18746702 2.8573244 3.51116765 3.125 6.8125 C0.75 7 0.75 7 -1.875 6.8125 C-2.535 5.8225 -3.195 4.8325 -3.875 3.8125 C-6.68061762 3.53193824 -8.34078263 3.54539132 -10.875 4.8125 C-11.53055119 7.33983235 -11.53055119 7.33983235 -11.875 9.8125 C-12.205 9.8125 -12.535 9.8125 -12.875 9.8125 C-12.875 6.5125 -12.875 3.2125 -12.875 -0.1875 C-8.30873244 -1.70958919 -4.48387271 -1.85203438 0 0 Z " fill="#35363C" transform="translate(148.875,343.1875)"/>
<path d="M0 0 C0.99 0 1.98 0 3 0 C3 7.59 3 15.18 3 23 C1.68 23 0.36 23 -1 23 C-3 20 -3 20 -2.625 17.8125 C-2.41875 17.214375 -2.2125 16.61625 -2 16 C-2 16.66 -2 17.32 -2 18 C-1.34 18 -0.68 18 0 18 C0 12.06 0 6.12 0 0 Z " fill="#383A44" transform="translate(355,343)"/>
<path d="M0 0 C0.99 0 1.98 0 3 0 C3 7.59 3 15.18 3 23 C1.68 23 0.36 23 -1 23 C-1.66 21.35 -2.32 19.7 -3 18 C-2.01 18 -1.02 18 0 18 C0 12.06 0 6.12 0 0 Z " fill="#3C404B" transform="translate(122,343)"/>
<path d="M0 0 C0.66 0.33 1.32 0.66 2 1 C2 1.66 2 2.32 2 3 C4.47945882 6.01992694 4.47945882 6.01992694 8 7.375 C11.40281175 8.43837867 12.40054018 10.97879811 14 14 C13.75 16.375 13.75 16.375 13 18 C12.7834375 17.38125 12.566875 16.7625 12.34375 16.125 C10.50023758 13.20967803 8.76398493 12.96201661 5.5 12 C0.33217883 10.47685271 0.33217883 10.47685271 -1.36328125 8.04296875 C-2.19453617 5.3758134 -1.78753227 3.64897219 -1 1 C-0.67 0.67 -0.34 0.34 0 0 Z " fill="#404047" transform="translate(135,344)"/>
<path d="M0 0 C0.33 0 0.66 0 1 0 C1.06058594 0.68707031 1.12117188 1.37414062 1.18359375 2.08203125 C1.26738281 2.98308594 1.35117187 3.88414062 1.4375 4.8125 C1.51871094 5.70582031 1.59992187 6.59914063 1.68359375 7.51953125 C1.93489767 10.12743559 1.93489767 10.12743559 3 13 C5.72757736 14.6039603 5.72757736 14.6039603 9 15 C11.81327138 13.34942646 11.81327138 13.34942646 14 11 C14.66 10.34 15.32 9.68 16 9 C15.64987213 11.59094622 15.26229035 13.5774211 13.875 15.8125 C10.87339168 17.7135186 8.46636875 17.35858987 5 17 C2.1697584 15.74211484 0.53268247 14.79640396 -1.19140625 12.21875 C-2.23367663 9.35880035 -1.82125854 7.68975829 -1.125 4.75 C-0.92132813 3.85796875 -0.71765625 2.9659375 -0.5078125 2.046875 C-0.34023438 1.37140625 -0.17265625 0.6959375 0 0 Z " fill="#474546" transform="translate(49,350)"/>
<path d="M0 0 C8.19256018 0.19256018 8.19256018 0.19256018 11.5625 3.5625 C12.036875 4.366875 12.51125 5.17125 13 6 C12.67 6.66 12.34 7.32 12 8 C9.9375 8.625 9.9375 8.625 8 9 C7.608125 8.34 7.21625 7.68 6.8125 7 C5.16439945 4.7446498 5.16439945 4.7446498 2.5 4.6875 C-0.12461546 4.93258508 -0.12461546 4.93258508 -3 6 C-3 5.01 -3 4.02 -3 3 C-2.01 3 -1.02 3 0 3 C0 2.01 0 1.02 0 0 Z " fill="#3E3C3D" transform="translate(55,342)"/>
<path d="M0 0 C0.66 0 1.32 0 2 0 C2 0.66 2 1.32 2 2 C2.66 2 3.32 2 4 2 C4.33 1.34 4.66 0.68 5 0 C5 0.66 5 1.32 5 2 C5.66 2 6.32 2 7 2 C7.33 1.34 7.66 0.68 8 0 C8.99 0.66 9.98 1.32 11 2 C11 2.99 11 3.98 11 5 C10.01 5 9.02 5 8 5 C8.495 5.45375 8.99 5.9075 9.5 6.375 C11 8 11 8 11 10 C11.99 9.67 12.98 9.34 14 9 C14 9.99 14 10.98 14 12 C10.57777323 11.35637019 8.15046485 10.0302073 5.25 8.125 C4.45078125 7.61195313 3.6515625 7.09890625 2.828125 6.5703125 C1.92320312 5.79300781 1.92320312 5.79300781 1 5 C1 4.01 1 3.02 1 2 C0.34 1.67 -0.32 1.34 -1 1 C-0.67 0.67 -0.34 0.34 0 0 Z " fill="#971A1E" transform="translate(157,216)"/>
<path d="M0 0 C0.33 0 0.66 0 1 0 C1 2.31 1 4.62 1 7 C-1.72280841 7.5605782 -4.28030098 8.01716128 -7.0625 8.1875 C-10.31124876 8.77078772 -10.31124876 8.77078772 -12.375 12.0625 C-12.91125 13.031875 -13.4475 14.00125 -14 15 C-14.99 14.34 -15.98 13.68 -17 13 C-13.37490838 6.06504212 -8.16621563 4.38873854 -1 2 C-0.67 1.34 -0.34 0.68 0 0 Z " fill="#0288D0" transform="translate(296,64)"/>
<path d="M0 0 C0.99 0 1.98 0 3 0 C3.13539281 2.89740622 3.23426829 5.78845621 3.3125 8.6875 C3.35439453 9.50412109 3.39628906 10.32074219 3.43945312 11.16210938 C3.53197233 15.73255814 3.48446766 17.40737212 0.48046875 21.08203125 C-0.33808594 21.71496094 -1.15664062 22.34789062 -2 23 C-2.33 22.34 -2.66 21.68 -3 21 C-2.34 20.67 -1.68 20.34 -1 20 C-0.67 13.4 -0.34 6.8 0 0 Z " fill="#384250" transform="translate(230,343)"/>
<path d="M0 0 C0 14.52 0 29.04 0 44 C-0.33 44 -0.66 44 -1 44 C-1.33 30.8 -1.66 17.6 -2 4 C-2.66 4.66 -3.32 5.32 -4 6 C-5.98821313 6.39764263 -7.98944339 6.73775349 -10 7 C-3.48275862 0 -3.48275862 0 0 0 Z " fill="#1E76AD" transform="translate(298,62)"/>
<path d="M0 0 C0.66 0 1.32 0 2 0 C2 5.94 2 11.88 2 18 C1.01 18 0.02 18 -1 18 C-0.34 19.65 0.32 21.3 1 23 C0.34 23 -0.32 23 -1 23 C-2.65 20.03 -4.3 17.06 -6 14 C-5.01 14 -4.02 14 -3 14 C-3 14.99 -3 15.98 -3 17 C-2.34 17 -1.68 17 -1 17 C-1.33 16.01 -1.66 15.02 -2 14 C-1.34 14 -0.68 14 0 14 C0 9.38 0 4.76 0 0 Z " fill="#69584D" transform="translate(120,343)"/>
<path d="M0 0 C0.80824219 0.10183594 1.61648438 0.20367187 2.44921875 0.30859375 C3.06410156 0.39238281 3.67898438 0.47617187 4.3125 0.5625 C4.6425 2.5425 4.9725 4.5225 5.3125 6.5625 C5.9725 6.5625 6.6325 6.5625 7.3125 6.5625 C6.9825 9.8625 6.6525 13.1625 6.3125 16.5625 C5.9825 16.5625 5.6525 16.5625 5.3125 16.5625 C5.19132812 15.86382812 5.07015625 15.16515625 4.9453125 14.4453125 C4.77773438 13.53523438 4.61015625 12.62515625 4.4375 11.6875 C4.27507812 10.78257812 4.11265625 9.87765625 3.9453125 8.9453125 C3.48205297 6.39744012 3.48205297 6.39744012 1.3125 4.5625 C-2.16479415 2.87084339 -4.83171297 2.34216931 -8.6875 2.5625 C-6.80760684 -1.19728632 -3.63897564 -0.474649 0 0 Z " fill="#404042" transform="translate(320.6875,342.4375)"/>
<path d="M0 0 C2.60527105 -0.10792837 5.20608311 -0.18724878 7.8125 -0.25 C8.55048828 -0.28351563 9.28847656 -0.31703125 10.04882812 -0.3515625 C15.51139526 -0.45043249 15.51139526 -0.45043249 18 1.84375 C19.1818462 4.39210586 19.23150455 6.2219454 19 9 C18.01 9 17.02 9 16 9 C16 7.35 16 5.7 16 4 C15.34 4 14.68 4 14 4 C13.67 4.66 13.34 5.32 13 6 C12.67 5.34 12.34 4.68 12 4 C9.67843403 3.59270772 7.3431213 3.25561323 5 3 C5 2.67 5 2.34 5 2 C3.35 1.67 1.7 1.34 0 1 C0 0.67 0 0.34 0 0 Z " fill="#343840" transform="translate(186,343)"/>
<path d="M0 0 C7.45475911 0.48883666 7.45475911 0.48883666 10 2.875 C11 5 11 5 11 8 C8.625 8.1875 8.625 8.1875 6 8 C5.34 7.01 4.68 6.02 4 5 C1.43717258 4.27034634 1.43717258 4.27034634 -1 4 C-0.67 2.68 -0.34 1.36 0 0 Z " fill="#3C3F46" transform="translate(374,342)"/>
<path d="M0 0 C3.03153686 0.32773371 4.61573103 0.64134897 6.875 2.75 C8 5 8 5 7.875 7.5625 C6.92998805 10.19503328 6.23463642 11.34471376 4 13 C1.8125 13.6875 1.8125 13.6875 0 14 C0 13.01 0 12.02 0 11 C0.99 10.34 1.98 9.68 3 9 C2.44271087 5.65626525 1.64826111 2.96687001 0 0 Z " fill="#393E4B" transform="translate(145,353)"/>
<path d="M0 0 C2.39949307 0.95979723 3.73612938 1.57074567 5.109375 3.8046875 C6.61139646 7.50703865 6.58280924 11.07620289 6 15 C4.89681842 17.35505285 3.66718358 18.96812002 2 21 C1.34 20.67 0.68 20.34 0 20 C0.33 19.34 0.66 18.68 1 18 C1.66 18 2.32 18 3 18 C3 13.71 3 9.42 3 5 C2.34 5 1.68 5 1 5 C0.67 3.35 0.34 1.7 0 0 Z " fill="#3B4458" transform="translate(325,344)"/>
<path d="M0 0 C4.19914831 0.55988644 6.85996274 1.95055161 10.3125 4.375 C11.19550781 4.98085937 12.07851562 5.58671875 12.98828125 6.2109375 C13.65214844 6.80132812 14.31601563 7.39171875 15 8 C15 8.99 15 9.98 15 11 C9.25 10.25 9.25 10.25 7 8 C7 7.01 7 6.02 7 5 C5.35 4.67 3.7 4.34 2 4 C2 3.01 2 2.02 2 1 C1.34 0.67 0.68 0.34 0 0 Z " fill="#DA3C2D" transform="translate(164,84)"/>
<path d="M0 0 C0 1.66666667 0 3.33333333 0 5 C-0.99 5.33 -1.98 5.66 -3 6 C-3.66 6.66 -4.32 7.32 -5 8 C-5.33 7.67 -5.66 7.34 -6 7 C-6.02712066 8.43739513 -6.04645067 9.87493863 -6.0625 11.3125 C-6.07410156 12.11300781 -6.08570312 12.91351563 -6.09765625 13.73828125 C-6.09657855 16.16861334 -6.09657855 16.16861334 -5 19 C-5.99 19 -6.98 19 -8 19 C-9.57190666 14.28428001 -9.50255135 10.45181501 -7.875 5.75 C-5.64393964 2.47777814 -3.63471826 1.4538873 0 0 Z " fill="#615852" transform="translate(83,342)"/>
<path d="M0 0 C6.12415343 3.84282322 12.16865561 7.72368078 18 12 C14.7997785 12 12.38516529 11.36757608 9.3125 10.5 C8.31863281 10.2215625 7.32476562 9.943125 6.30078125 9.65625 C5.54152344 9.4396875 4.78226563 9.223125 4 9 C4 7.35 4 5.7 4 4 C2.68 3.34 1.36 2.68 0 2 C0 1.34 0 0.68 0 0 Z " fill="#E4552E" transform="translate(180,93)"/>
<path d="M0 0 C0 0.66 0 1.32 0 2 C-0.99 2 -1.98 2 -3 2 C-3.12375 2.53625 -3.2475 3.0725 -3.375 3.625 C-3.84627689 5.41585219 -4.40322405 7.18447064 -5 8.9375 C-5.87831874 11.62735114 -6.50906131 14.21801408 -7 17 C-7.66 16.67 -8.32 16.34 -9 16 C-9.56707317 6.3597561 -9.56707317 6.3597561 -6 2 C-3 0 -3 0 0 0 Z " fill="#5C5148" transform="translate(55,343)"/>
<path d="M0 0 C3.3 0 6.6 0 10 0 C10 0.99 10 1.98 10 3 C9.34 3 8.68 3 8 3 C8 9.6 8 16.2 8 23 C7.67 23 7.34 23 7 23 C7 16.4 7 9.8 7 3 C4.69 3 2.38 3 0 3 C0 2.01 0 1.02 0 0 Z " fill="#2A2624" transform="translate(158,343)"/>
<path d="M0 0 C0.66 0.33 1.32 0.66 2 1 C2 6.28 2 11.56 2 17 C1.01 17 0.02 17 -1 17 C-1.02684679 14.35409986 -1.04676357 11.70846904 -1.0625 9.0625 C-1.07087891 8.30775391 -1.07925781 7.55300781 -1.08789062 6.77539062 C-1.09652441 4.85005687 -1.05224333 2.92464419 -1 1 C-0.67 0.67 -0.34 0.34 0 0 Z " fill="#334F5D" transform="translate(169,349)"/>
<path d="M0 0 C0 0.99 0 1.98 0 3 C-2.64 3 -5.28 3 -8 3 C-8 9.6 -8 16.2 -8 23 C-8.33 23 -8.66 23 -9 23 C-9.33 15.74 -9.66 8.48 -10 1 C-6.52674819 -0.1577506 -3.63932552 -0.06866652 0 0 Z " fill="#3D4957" transform="translate(288,343)"/>
<path d="M0 0 C2.97 0.33 5.94 0.66 9 1 C9.33 2.32 9.66 3.64 10 5 C10.66 5.66 11.32 6.32 12 7 C10.23046875 7.640625 10.23046875 7.640625 8 8 C6.11328125 7.109375 6.11328125 7.109375 4.3125 5.75 C3.40951172 5.09257812 3.40951172 5.09257812 2.48828125 4.421875 C1 3 1 3 0 0 Z " fill="#CD2127" transform="translate(174,144)"/>
<path d="M0 0 C0.66 0 1.32 0 2 0 C2.13277344 1.05960937 2.26554688 2.11921875 2.40234375 3.2109375 C2.58053875 4.59898279 2.7589346 5.98700231 2.9375 7.375 C3.02451172 8.07367188 3.11152344 8.77234375 3.20117188 9.4921875 C3.66318128 13.36783575 3.66318128 13.36783575 5 17 C2.30399627 16.0114653 1.19441351 15.34022364 -0.25 12.8125 C-1.44618225 8.32681656 -1.46804563 4.40413689 0 0 Z " fill="#645446" transform="translate(241,348)"/>
<path d="M0 0 C3.62528568 -0.20140476 5.86501708 0.14223235 9 2 C8.67 3.98 8.34 5.96 8 8 C5 8 5 8 2.3125 5.6875 C0 3 0 3 0 0 Z " fill="#8C161C" transform="translate(135,200)"/>
<path d="M0 0 C0.33 0 0.66 0 1 0 C1 3.63 1 7.26 1 11 C0.34 11 -0.32 11 -1 11 C-1.33 12.32 -1.66 13.64 -2 15 C-6.455 15.495 -6.455 15.495 -11 16 C-11 15.34 -11 14.68 -11 14 C-8.36 13.67 -5.72 13.34 -3 13 C-2.67 10.69 -2.34 8.38 -2 6 C-1.67 6 -1.34 6 -1 6 C-0.67 4.02 -0.34 2.04 0 0 Z " fill="#3C3B3A" transform="translate(327,351)"/>
<path d="M0 0 C0.66 0.33 1.32 0.66 2 1 C1.67 1.66 1.34 2.32 1 3 C0.76970044 5.37123246 0.58880058 7.74741943 0.4375 10.125 C0.35371094 11.40632813 0.26992188 12.68765625 0.18359375 14.0078125 C0.12300781 14.99523437 0.06242187 15.98265625 0 17 C-2 16 -2 16 -3 13 C-3.39741243 7.73428531 -2.6667422 4.5556846 0 0 Z " fill="#66574B" transform="translate(310,345)"/>
<path d="M0 0 C0.66 0 1.32 0 2 0 C2 5.94 2 11.88 2 18 C1.34 18 0.68 18 0 18 C-1.30062431 14.18483536 -0.89369853 10.72438237 -0.5625 6.75 C-0.46066406 5.48671875 -0.35882813 4.2234375 -0.25390625 2.921875 C-0.17011719 1.95765625 -0.08632813 0.9934375 0 0 Z " fill="#635951" transform="translate(353,343)"/>
<path d="M0 0 C1.33895632 1.66215268 2.67130142 3.32963607 4 5 C4.8971875 6.051875 4.8971875 6.051875 5.8125 7.125 C6.204375 7.74375 6.59625 8.3625 7 9 C6.67 9.99 6.34 10.98 6 12 C5.01 10.35 4.02 8.7 3 7 C2.67 7.66 2.34 8.32 2 9 C1.01 8.67 0.02 8.34 -1 8 C-1 7.01 -1 6.02 -1 5 C-1.66 5 -2.32 5 -3 5 C-2.67 4.01 -2.34 3.02 -2 2 C-1.34 2.33 -0.68 2.66 0 3 C0 2.01 0 1.02 0 0 Z " fill="#474E56" transform="translate(345,346)"/>
<path d="M0 0 C2.42945561 3.64418341 2.0828781 4.92923364 1.625 9.1875 C1.51414062 10.27417969 1.40328125 11.36085938 1.2890625 12.48046875 C1.19367188 13.31191406 1.09828125 14.14335937 1 15 C-0.98 15.66 -2.96 16.32 -5 17 C-5 16.34 -5 15.68 -5 15 C-4.52949219 14.59136719 -4.05898437 14.18273437 -3.57421875 13.76171875 C-1.35567042 11.27892645 -1.26871607 9.07619958 -0.8125 5.8125 C-0.65394531 4.72582031 -0.49539062 3.63914062 -0.33203125 2.51953125 C-0.22246094 1.68808594 -0.11289063 0.85664063 0 0 Z " fill="#4F4A44" transform="translate(93,350)"/>
<path d="M0 0 C1.80166872 1.04544991 3.59105379 2.1120877 5.375 3.1875 C6.87160156 4.07501953 6.87160156 4.07501953 8.3984375 4.98046875 C11.22694778 7.17617418 12.02735933 8.60747622 13 12 C12.01 11.67 11.02 11.34 10 11 C9.01 11.495 9.01 11.495 8 12 C8 10.35 8 8.7 8 7 C7.34 7 6.68 7 6 7 C6 6.34 6 5.68 6 5 C5.071875 4.7834375 5.071875 4.7834375 4.125 4.5625 C2 4 2 4 0 3 C0 2.01 0 1.02 0 0 Z " fill="#E17A34" transform="translate(202,108)"/>
<path d="M0 0 C0.86625 0.37125 0.86625 0.37125 1.75 0.75 C0.13405168 2.79119788 -1.5356382 4.79072937 -3.25 6.75 C-3.91 6.75 -4.57 6.75 -5.25 6.75 C-5.25 8.73 -5.25 10.71 -5.25 12.75 C-5.58 12.75 -5.91 12.75 -6.25 12.75 C-6.87068966 4.68103448 -6.87068966 4.68103448 -4.5 1.125 C-2.25 -0.25 -2.25 -0.25 0 0 Z " fill="#373842" transform="translate(316.25,344.25)"/>
<path d="M0 0 C0.66 0 1.32 0 2 0 C2.66 1.32 3.32 2.64 4 4 C3.01 4 2.02 4 1 4 C1.66 5.98 2.32 7.96 3 10 C2.67 10 2.34 10 2 10 C1.67 13.96 1.34 17.92 1 22 C0.67 22 0.34 22 0 22 C-0.19590444 18.52125243 -0.38031592 15.04199096 -0.5625 11.5625 C-0.61857422 10.56927734 -0.67464844 9.57605469 -0.73242188 8.55273438 C-0.78076172 7.60849609 -0.82910156 6.66425781 -0.87890625 5.69140625 C-0.9260376 4.81685791 -0.97316895 3.94230957 -1.02172852 3.04125977 C-1 1 -1 1 0 0 Z " fill="#454955" transform="translate(109,343)"/>
<path d="M0 0 C1.32 0.33 2.64 0.66 4 1 C4 1.66 4 2.32 4 3 C4.66 3.33 5.32 3.66 6 4 C4.35 4.66 2.7 5.32 1 6 C1 6.66 1 7.32 1 8 C0.01 7.67 -0.98 7.34 -2 7 C-1.125 2.25 -1.125 2.25 0 0 Z " fill="#2D3493" transform="translate(267,216)"/>
<path d="M0 0 C0.99 0 1.98 0 3 0 C3 1.98 3 3.96 3 6 C-1.31392226 5.5206753 -3.16569547 4.2542015 -6 1 C-3.03 1.495 -3.03 1.495 0 2 C0 1.34 0 0.68 0 0 Z " fill="#DF5D26" transform="translate(212,166)"/>
<path d="M0 0 C-0.66 1.65 -1.32 3.3 -2 5 C-4.4375 4.25 -4.4375 4.25 -7 3 C-7.8125 0.875 -7.8125 0.875 -8 -1 C-4.59745511 -2.2151946 -3.06748874 -1.86240388 0 0 Z " fill="#DE372C" transform="translate(196,154)"/>
<path d="M0 0 C1.65 0.33 3.3 0.66 5 1 C4.67 2.32 4.34 3.64 4 5 C4.66 5.33 5.32 5.66 6 6 C4.35 6.33 2.7 6.66 1 7 C0.67 6.34 0.34 5.68 0 5 C-0.66 4.67 -1.32 4.34 -2 4 C-1.34 2.68 -0.68 1.36 0 0 Z " fill="#D31C22" transform="translate(146,73)"/>
<path d="M0 0 C0.66 0.33 1.32 0.66 2 1 C-0.23312883 8.01840491 -0.23312883 8.01840491 -2 11 C-2.99 11.495 -2.99 11.495 -4 12 C-4 8.7 -4 5.4 -4 2 C-2.68 1.34 -1.36 0.68 0 0 Z " fill="#3B3D40" transform="translate(80,347)"/>
<path d="M0 0 C1.34345985 0.73170581 2.67460584 1.48605753 4 2.25 C4.7425 2.66765625 5.485 3.0853125 6.25 3.515625 C6.8275 4.00546875 7.405 4.4953125 8 5 C8 6.32 8 7.64 8 9 C6.35 8.67 4.7 8.34 3 8 C3.33 6.68 3.66 5.36 4 4 C2.68 3.67 1.36 3.34 0 3 C0 2.01 0 1.02 0 0 Z " fill="#BF1F28" transform="translate(136,63)"/>
<path d="M0 0 C0.75 1.75 0.75 1.75 1 4 C-0.5 6.25 -0.5 6.25 -3 8 C-6.75 8.25 -6.75 8.25 -10 8 C-9.67 7.01 -9.34 6.02 -9 5 C-7.68 5 -6.36 5 -5 5 C-2.24958334 2.58333229 -2.24958334 2.58333229 0 0 Z " fill="#3E3A3D" transform="translate(64,359)"/>
<path d="M0 0 C0.66 0 1.32 0 2 0 C2 3.96 2 7.92 2 12 C0.68 11.67 -0.64 11.34 -2 11 C-1.85957123 9.35369672 -1.71250671 7.70795821 -1.5625 6.0625 C-1.48128906 5.14597656 -1.40007812 4.22945313 -1.31640625 3.28515625 C-1 1 -1 1 0 0 Z " fill="#2E3E50" transform="translate(188,354)"/>
<path d="M0 0 C2.64 0.33 5.28 0.66 8 1 C8 1.99 8 2.98 8 4 C5.03 4 2.06 4 -1 4 C-0.67 2.68 -0.34 1.36 0 0 Z " fill="#393C41" transform="translate(374,352)"/>
<path d="M0 0 C2.109375 0.41015625 2.109375 0.41015625 4 1 C2.56839732 2.00842453 1.12948547 3.00647891 -0.3125 4 C-1.51326172 4.8353125 -1.51326172 4.8353125 -2.73828125 5.6875 C-5 7 -5 7 -8 7 C-8 6.34 -8 5.68 -8 5 C-7.01 5 -6.02 5 -5 5 C-5 3.68 -5 2.36 -5 1 C-4.34 1 -3.68 1 -3 1 C-3 1.66 -3 2.32 -3 3 C-2.5875 2.484375 -2.175 1.96875 -1.75 1.4375 C-1.1725 0.963125 -0.595 0.48875 0 0 Z " fill="#105A9B" transform="translate(225,165)"/>
<path d="M0 0 C1.875 0.0625 1.875 0.0625 4 1 C5.75 4.0625 5.75 4.0625 7 7 C5.35 7.33 3.7 7.66 2 8 C1.87625 7.030625 1.7525 6.06125 1.625 5.0625 C1.41875 4.051875 1.2125 3.04125 1 2 C0.34 1.67 -0.32 1.34 -1 1 C-0.67 0.67 -0.34 0.34 0 0 Z " fill="#F02E25" transform="translate(167,88)"/>
<path d="M0 0 C1.32 0 2.64 0 4 0 C4 0.66 4 1.32 4 2 C5.98 2.66 7.96 3.32 10 4 C10 4.66 10 5.32 10 6 C10.99 5.67 11.98 5.34 13 5 C13 5.99 13 6.98 13 8 C9.52709591 7.36276989 7.15645247 5.97562783 4.25 4 C3.45078125 3.46375 2.6515625 2.9275 1.828125 2.375 C1.22484375 1.92125 0.6215625 1.4675 0 1 C0 0.67 0 0.34 0 0 Z " fill="#841D26" transform="translate(158,220)"/>
<path d="M0 0 C-3.96 2.64 -7.92 5.28 -12 8 C-12.33 7.34 -12.66 6.68 -13 6 C-12.195625 5.38125 -11.39125 4.7625 -10.5625 4.125 C-7.96125481 2.25835959 -7.96125481 2.25835959 -7 0 C-4 -1 -4 -1 0 0 Z " fill="#2B3277" transform="translate(281,216)"/>
<path d="M0 0 C0.66 0.99 1.32 1.98 2 3 C-2.02167317 5.96837781 -5.00088076 7.52389341 -10 8 C-6.97727468 4.74475735 -3.74281699 2.38179263 0 0 Z " fill="#1581B9" transform="translate(276,76)"/>
<path d="M0 0 C0.66 1.32 1.32 2.64 2 4 C2.99 4.33 3.98 4.66 5 5 C4.75 6.875 4.75 6.875 4 9 C2.02 9.99 2.02 9.99 0 11 C0 7.37 0 3.74 0 0 Z " fill="#C8191F" transform="translate(135,62)"/>
<path d="M0 0 C1.32 0.33 2.64 0.66 4 1 C4 2.65 4 4.3 4 6 C2.02 6.99 2.02 6.99 0 8 C0 7.34 0 6.68 0 6 C-0.66 5.67 -1.32 5.34 -2 5 C-1.34 3.35 -0.68 1.7 0 0 Z " fill="#4A4B55" transform="translate(200,347)"/>
<path d="M0 0 C0.28875 0.639375 0.5775 1.27875 0.875 1.9375 C1.82823451 4.15206079 1.82823451 4.15206079 4 5 C4 6.32 4 7.64 4 9 C4.165 9.804375 4.33 10.60875 4.5 11.4375 C5.00481843 14.02469443 5.07509811 16.37156604 5 19 C3.19523895 15.74358332 2.26051195 12.54663205 1.375 8.9375 C1.11460938 7.89464844 0.85421875 6.85179687 0.5859375 5.77734375 C0 3 0 3 0 0 Z " fill="#373737" transform="translate(65,296)"/>
<path d="M0 0 C0.66 0 1.32 0 2 0 C2.33 2.97 2.66 5.94 3 9 C2.34 9 1.68 9 1 9 C1 8.34 1 7.68 1 7 C-0.32 7 -1.64 7 -3 7 C-2.67 6.01 -2.34 5.02 -2 4 C-1.34 4 -0.68 4 0 4 C0 2.68 0 1.36 0 0 Z " fill="#EE4326" transform="translate(197,152)"/>
<path d="M0 0 C0.66 0.33 1.32 0.66 2 1 C1.38125 1.7425 0.7625 2.485 0.125 3.25 C-1.60437281 5.48801188 -2.86106661 7.43739987 -4 10 C-4.99 9.34 -5.98 8.68 -7 8 C-3.375 2.25 -3.375 2.25 0 0 Z " fill="#0D83C0" transform="translate(286,69)"/>
<path d="M0 0 C0.66 0.33 1.32 0.66 2 1 C0.17251097 3.46313739 -1.22976216 4.83428618 -4.26953125 5.48828125 C-6.51479346 5.72518293 -8.74455578 5.90361349 -11 6 C-11.33 5.34 -11.66 4.68 -12 4 C-10.95199219 3.81824219 -10.95199219 3.81824219 -9.8828125 3.6328125 C-8.51769531 3.38144531 -8.51769531 3.38144531 -7.125 3.125 C-5.76761719 2.88136719 -5.76761719 2.88136719 -4.3828125 2.6328125 C-1.83494012 2.16955297 -1.83494012 2.16955297 0 0 Z " fill="#4C4A48" transform="translate(324,360)"/>
<path d="M0 0 C1.32 0 2.64 0 4 0 C4.66 2.31 5.32 4.62 6 7 C4.02 6.34 2.04 5.68 0 5 C0 3.35 0 1.7 0 0 Z " fill="#3C3E45" transform="translate(340,343)"/>
<path d="M0 0 C0.33 0 0.66 0 1 0 C1 2.97 1 5.94 1 9 C-0.65 9.66 -2.3 10.32 -4 11 C-3.67 9.02 -3.34 7.04 -3 5 C-2.01 5 -1.02 5 0 5 C0 3.35 0 1.7 0 0 Z " fill="#263B96" transform="translate(296,195)"/>
<path d="M0 0 C1.65 0.33 3.3 0.66 5 1 C4.67 1.99 4.34 2.98 4 4 C3.34 3.67 2.68 3.34 2 3 C3.32 4.65 4.64 6.3 6 8 C4.1875 7.8125 4.1875 7.8125 2 7 C0.1875 4.5625 0.1875 4.5625 -1 2 C-0.67 1.34 -0.34 0.68 0 0 Z " fill="#514F50" transform="translate(366,358)"/>
<path d="M0 0 C1.65 0 3.3 0 5 0 C5 1.65 5 3.3 5 5 C3.02 5 1.04 5 -1 5 C-1 2 -1 2 0 0 Z " fill="#35373C" transform="translate(84,342)"/>
<path d="M0 0 C1.32 0 2.64 0 4 0 C4 0.66 4 1.32 4 2 C5.98 1.67 7.96 1.34 10 1 C9.01 1.495 9.01 1.495 8 2 C8.33 3.32 8.66 4.64 9 6 C5.06326356 4.68775452 2.77280706 3.08089673 0 0 Z " fill="#D64A2F" transform="translate(194,159)"/>
<path d="M0 0 C4.43458973 1.3937282 6.87378374 3.60582235 10 7 C8.51515588 6.60404157 7.0371169 6.18249294 5.5625 5.75 C4.73878906 5.51796875 3.91507813 5.2859375 3.06640625 5.046875 C1 4 1 4 0.21484375 1.890625 C0.14394531 1.26671875 0.07304687 0.6428125 0 0 Z " fill="#DD5F32" transform="translate(188,99)"/>
<path d="M0 0 C0.8353125 0.7734375 0.8353125 0.7734375 1.6875 1.5625 C1.3575 2.2225 1.0275 2.8825 0.6875 3.5625 C-2.1875 3.25 -2.1875 3.25 -5.3125 2.5625 C-5.9725 1.5725 -6.6325 0.5825 -7.3125 -0.4375 C-2.88173077 -1.79134615 -2.88173077 -1.79134615 0 0 Z " fill="#E63F22" transform="translate(178.3125,91.4375)"/>
<path d="M0 0 C0.66 0.33 1.32 0.66 2 1 C2 3.97 2 6.94 2 10 C1.01 9.67 0.02 9.34 -1 9 C-1.625 6.1875 -1.625 6.1875 -2 3 C-1.34 2.01 -0.68 1.02 0 0 Z " fill="#635851" transform="translate(135,344)"/>
<path d="M0 0 C0.66 0.33 1.32 0.66 2 1 C1 3 0 5 -1 7 C-3.97 6.505 -3.97 6.505 -7 6 C-5 4.66666667 -3 3.33333333 -1 2 C-0.67 1.34 -0.34 0.68 0 0 Z " fill="#3D383A" transform="translate(256,360)"/>
<path d="M0 0 C1.32 0 2.64 0 4 0 C3.773125 0.763125 3.54625 1.52625 3.3125 2.3125 C3.209375 3.199375 3.10625 4.08625 3 5 C4.33378575 6.8354799 4.33378575 6.8354799 6 8 C4.1875 7.8125 4.1875 7.8125 2 7 C0.1875 4.5625 0.1875 4.5625 -1 2 C-0.67 1.34 -0.34 0.68 0 0 Z " fill="#5C5251" transform="translate(133,358)"/>
<path d="M0 0 C1.66175734 5.16991173 -0.29635592 9.00264404 -2 14 C-2.99 13.67 -3.98 13.34 -5 13 C-4.72285156 12.31292969 -4.44570313 11.62585938 -4.16015625 10.91796875 C-3.79792969 10.01691406 -3.43570312 9.11585938 -3.0625 8.1875 C-2.70285156 7.29417969 -2.34320313 6.40085937 -1.97265625 5.48046875 C-1.26386514 3.6729091 -0.6139753 1.84192591 0 0 Z " fill="#363636" transform="translate(293,293)"/>
<path d="M0 0 C1.98 0 3.96 0 6 0 C6.33 1.32 6.66 2.64 7 4 C6.01 3.67 5.02 3.34 4 3 C3.67 3.66 3.34 4.32 3 5 C2.01 4.34 1.02 3.68 0 3 C0 2.01 0 1.02 0 0 Z " fill="#067CCC" transform="translate(255,90)"/>
<path d="M0 0 C0.66 0.33 1.32 0.66 2 1 C2 3.97 2 6.94 2 10 C1.01 9.67 0.02 9.34 -1 9 C-1.80967438 6.08517222 -2.21845993 4.53886783 -1.0625 1.6875 C-0.711875 1.130625 -0.36125 0.57375 0 0 Z " fill="#5E544E" transform="translate(368,344)"/>
<path d="M0 0 C1.32 0.33 2.64 0.66 4 1 C4 2.98 4 4.96 4 7 C3.01 7 2.02 7 1 7 C0.67 4.69 0.34 2.38 0 0 Z " fill="#403C41" transform="translate(110,347)"/>
<path d="M0 0 C0.99 0 1.98 0 3 0 C3 2.64 3 5.28 3 8 C2.01 8 1.02 8 0 8 C0 5.36 0 2.72 0 0 Z " fill="#2D3E52" transform="translate(187,345)"/>
<path d="M0 0 C1.65 0.99 3.3 1.98 5 3 C4.67 6.3 4.34 9.6 4 13 C3.67 13 3.34 13 3 13 C2.86722656 12.31292969 2.73445313 11.62585938 2.59765625 10.91796875 C2.42105469 10.01691406 2.24445313 9.11585938 2.0625 8.1875 C1.88847656 7.29417969 1.71445312 6.40085937 1.53515625 5.48046875 C1.02258847 2.88602829 1.02258847 2.88602829 0 0 Z " fill="#675C4C" transform="translate(323,346)"/>
<path d="M0 0 C1.46534385 3.80989402 0.55203911 6.3241179 -1 10 C-1.99 10.495 -1.99 10.495 -3 11 C-2.69217504 9.35328588 -2.37860766 7.70764424 -2.0625 6.0625 C-1.88847656 5.14597656 -1.71445312 4.22945313 -1.53515625 3.28515625 C-1 1 -1 1 0 0 Z " fill="#353535" transform="translate(302,266)"/>
<path d="M0 0 C0.66 0 1.32 0 2 0 C2.12375 0.61875 2.2475 1.2375 2.375 1.875 C2.87197356 4.19120832 2.87197356 4.19120832 5 6 C3.68 6.33 2.36 6.66 1 7 C-0.0625 5.1875 -0.0625 5.1875 -1 3 C-0.67 2.01 -0.34 1.02 0 0 Z " fill="#E41F24" transform="translate(181,145)"/>
<path d="M0 0 C0.66 0 1.32 0 2 0 C2.33 1.65 2.66 3.3 3 5 C1.35 5 -0.3 5 -2 5 C-2.33 3.68 -2.66 2.36 -3 1 C-2.01 1.495 -2.01 1.495 -1 2 C-0.67 1.34 -0.34 0.68 0 0 Z " fill="#40445A" transform="translate(149,345)"/>
<path d="M0 0 C1.9375 0.8125 1.9375 0.8125 4 2 C4.33 2.99 4.66 3.98 5 5 C3.35 5.66 1.7 6.32 0 7 C0 4.69 0 2.38 0 0 Z " fill="#3C4650" transform="translate(63,344)"/>
<path d="M0 0 C1.9375 0.25 1.9375 0.25 4 1 C6 4 6 4 5.625 6.1875 C5.41875 6.785625 5.2125 7.38375 5 8 C4.62875 7.1028125 4.62875 7.1028125 4.25 6.1875 C2.83629988 3.71352479 1.34944617 2.56629745 -1 1 C-0.67 0.67 -0.34 0.34 0 0 Z " fill="#4C4B46" transform="translate(143,354)"/>
<path d="M0 0 C1.65 0 3.3 0 5 0 C4.67 0.99 4.34 1.98 4 3 C4.66 3.33 5.32 3.66 6 4 C3.69 3.67 1.38 3.34 -1 3 C-0.67 2.01 -0.34 1.02 0 0 Z " fill="#434242" transform="translate(139,342)"/>
<path d="M0 0 C1.32 0.66 2.64 1.32 4 2 C4 2.99 4 3.98 4 5 C2.35 4.67 0.7 4.34 -1 4 C-0.67 2.68 -0.34 1.36 0 0 Z " fill="#A7161E" transform="translate(164,216)"/>
<path d="M0 0 C2.97 0.495 2.97 0.495 6 1 C4.35 2.32 2.7 3.64 1 5 C0.34 4.01 -0.32 3.02 -1 2 C-0.67 1.34 -0.34 0.68 0 0 Z " fill="#0E609F" transform="translate(250,146)"/>
<path d="M0 0 C0.66 0.33 1.32 0.66 2 1 C0.875 2.9375 0.875 2.9375 -1 5 C-4.1875 5.75 -4.1875 5.75 -7 6 C-4.74259377 3.66475218 -2.7194239 1.81294927 0 0 Z " fill="#1486BD" transform="translate(295,63)"/>
<path d="M0 0 C0.99 0 1.98 0 3 0 C2.39816251 2.02045442 1.72693904 4.02111039 1 6 C0.01 6.495 0.01 6.495 -1 7 C-0.67 4.69 -0.34 2.38 0 0 Z " fill="#3C3E53" transform="translate(95,357)"/>
<path d="M0 0 C2.53731364 1.26865682 2.78646846 2.49709121 4 5 C4.66 5.66 5.32 6.32 6 7 C5.34 7.66 4.68 8.32 4 9 C0 3.375 0 3.375 0 0 Z " fill="#383838" transform="translate(129,309)"/>
<path d="M0 0 C-0.6875 1.9375 -0.6875 1.9375 -2 4 C-4.625 4.75 -4.625 4.75 -7 5 C-2.25 0 -2.25 0 0 0 Z " fill="#1778B3" transform="translate(225,112)"/>
</svg>
